<svg width="18" height="18" viewBox="0 0 18 18" fill="none" xmlns="http://www.w3.org/2000/svg">
<g clip-path="url(#clip0)">
<path d="M16.8066 17.4084L15.4385 4.38038C15.4098 4.10764 15.1799 3.90055 14.9057 3.90055H12.3344V3.31429C12.3344 1.48686 10.8475 0 9.02006 0C7.19249 0 5.70563 1.48686 5.70563 3.31429V3.90055H3.13428C2.86004 3.90055 2.63015 4.10764 2.60145 4.38038L1.23338 17.4084C1.21758 17.5593 1.26661 17.7099 1.3681 17.8228C1.46972 17.9356 1.61446 18 1.76621 18H16.2736C16.4255 18 16.5703 17.9356 16.6717 17.8228C16.7735 17.7099 16.8224 17.5593 16.8066 17.4084ZM6.77707 3.31429C6.77707 2.07765 7.78328 1.07144 9.02006 1.07144C10.2567 1.07144 11.2629 2.07765 11.2629 3.31429V3.90055H6.77707V3.31429ZM2.36112 16.9285L3.61672 4.97199H5.70563V6.15261C5.70563 6.44841 5.94554 6.68833 6.24135 6.68833C6.53715 6.68833 6.77707 6.44841 6.77707 6.15261V4.97199H11.2629V6.15261C11.2629 6.44841 11.5028 6.68833 11.7986 6.68833C12.0944 6.68833 12.3344 6.44841 12.3344 6.15261V4.97199H14.4233L15.6789 16.9285H2.36112Z" fill="#2B2B2B"/>
</g>
<defs>
<clipPath id="clip0">
<rect width="18" height="18" fill="white"/>
</clipPath>
</defs>
</svg>
