<svg width="19" height="19" viewBox="0 0 19 19" fill="none" xmlns="http://www.w3.org/2000/svg">
<path d="M10.9875 2.38509L10.984 2.3817C10.9201 2.31575 10.8319 2.27886 10.7399 2.27992C10.7285 2.27939 10.7171 2.28045 10.7059 2.28342H5.4958C4.55927 2.28363 3.80023 3.04278 3.7998 3.97941V14.8338C3.80023 15.7703 4.55927 16.5294 5.4958 16.5298H13.0499C13.9864 16.5294 14.7455 15.7703 14.7459 14.8338V6.27902C14.7452 6.18922 14.71 6.10302 14.6475 6.03834L10.9875 2.38509ZM11.079 3.43666L13.5959 5.94674H12.0967C11.5354 5.94504 11.0806 5.4904 11.079 4.9292V3.43666ZM13.0533 15.848H5.4958C4.9345 15.8464 4.47996 15.3917 4.47816 14.8304V3.97592C4.47996 3.41472 4.9345 2.95997 5.4958 2.95838H10.4007V4.9292C10.401 5.86562 11.1602 6.62477 12.0967 6.6252H14.0675V14.8304C14.0686 15.3915 13.6144 15.8473 13.0533 15.848Z" fill="#2B2B2B" stroke="#2B2B2B" stroke-width="0.5"/>
</svg>
