<svg width="14" height="17" viewBox="0 0 14 17" fill="none" xmlns="http://www.w3.org/2000/svg">
<path d="M11.3494 1.95811H8.80536C8.67845 0.857653 7.74216 0 6.6082 0C5.47427 0 4.53812 0.857619 4.41121 1.95811H1.86705C0.837497 1.95811 0 2.79584 0 3.82536V3.92116C0 4.70791 0.489875 5.3813 1.17997 5.65568V14.4764C1.17997 15.506 2.01757 16.3437 3.04705 16.3437H10.1694C11.1989 16.3437 12.0365 15.5059 12.0365 14.4764V5.65571C12.7265 5.3813 13.2164 4.70791 13.2164 3.9212V3.82539C13.2164 2.79584 12.3789 1.95811 11.3494 1.95811ZM6.6082 0.885534C7.25314 0.885534 7.79146 1.3478 7.91057 1.95811H5.30607C5.42515 1.34776 5.9635 0.885534 6.6082 0.885534ZM11.1509 14.4764C11.1509 15.0177 10.7105 15.4582 10.1694 15.4582H3.04702C2.50588 15.4582 2.06547 15.0177 2.06547 14.4764V5.78841H11.1509V14.4764ZM12.3309 3.92116C12.3309 4.46246 11.8905 4.90291 11.3494 4.90291H1.86705C1.32592 4.90291 0.885502 4.46246 0.885502 3.92116V3.82536C0.885502 3.28405 1.32592 2.84361 1.86705 2.84361H11.3494C11.8905 2.84361 12.3309 3.28405 12.3309 3.82536L12.3309 3.92116Z" fill="#2B2B2B"/>
<path d="M4.23436 14.3257C4.47889 14.3257 4.67711 14.1275 4.67711 13.883V8.89776C4.67711 8.6533 4.47885 8.45498 4.23436 8.45498C3.98986 8.45498 3.79161 8.6533 3.79161 8.89776V13.883C3.79157 14.1275 3.98983 14.3257 4.23436 14.3257Z" fill="#2B2B2B"/>
<path d="M6.6077 14.3257C6.85223 14.3257 7.05048 14.1275 7.05048 13.883V8.89776C7.05048 8.6533 6.85216 8.45498 6.6077 8.45498C6.3632 8.45498 6.16495 8.6533 6.16495 8.89776V13.883C6.16495 14.1275 6.36317 14.3257 6.6077 14.3257Z" fill="#2B2B2B"/>
<path d="M8.98236 14.3257C9.22685 14.3257 9.42507 14.1275 9.42507 13.883V8.89776C9.42507 8.6533 9.22682 8.45498 8.98236 8.45498C8.73779 8.45498 8.53957 8.6533 8.53957 8.89776V13.883C8.53954 14.1275 8.73786 14.3257 8.98236 14.3257Z" fill="#2B2B2B"/>
</svg>
