<svg width="19" height="19" viewBox="0 0 19 19" fill="none" xmlns="http://www.w3.org/2000/svg">
<path d="M11.8915 2.72959L11.8918 2.72934C12.6254 1.99692 13.8135 1.99692 14.5471 2.72934L15.5106 3.68934L15.5108 3.68953C16.2431 4.42313 16.2431 5.61128 15.5108 6.34498L15.5107 6.34504L8.18919 13.6673C8.18265 13.6759 8.17605 13.6822 8.17114 13.6865C8.1657 13.6926 8.16044 13.6971 8.15661 13.7L8.1547 13.702L8.14592 13.7078C8.14587 13.7079 8.14536 13.7082 8.14424 13.7091L8.13809 13.7141L8.13721 13.7149C8.13251 13.7188 8.12359 13.7262 8.11378 13.7327L11.8915 2.72959ZM11.8915 2.72959L11.2624 3.3622L11.2622 3.36241L4.57124 10.0505M11.8915 2.72959L4.57124 10.0505M4.57124 10.0505H4.55925L4.52956 10.095C4.52958 10.095 4.52888 10.096 4.52357 10.1023L4.52288 10.1032C4.51891 10.1079 4.51116 10.1172 4.50436 10.1275L4.48797 10.1525V10.1552C4.48707 10.1567 4.48631 10.1579 4.48557 10.1591C4.4835 10.1618 4.48171 10.1644 4.48019 10.1668L4.47183 10.1754L4.46463 10.197L4.46139 10.2055L4.46107 10.2063C4.46019 10.2085 4.45906 10.2113 4.4578 10.2146C4.45414 10.2213 4.45095 10.229 4.4487 10.2376C4.44865 10.2378 4.4486 10.238 4.44854 10.2382L2.96435 14.7018C2.9643 14.7019 2.96425 14.702 2.9642 14.7022C2.90838 14.8657 2.95101 15.0466 3.07402 15.168L4.57124 10.0505ZM8.16095 13.6946L8.16112 13.6945L8.16095 13.6946ZM4.47346 10.1788C4.47324 10.1793 4.47328 10.1792 4.4735 10.1788L4.47346 10.1788ZM4.51652 10.1142L4.51591 10.1148L4.51652 10.1142ZM14.8679 5.70583L14.8677 5.70607L14.5614 6.01522L12.2283 3.68189L12.5382 3.37218C12.9154 2.9952 13.5269 2.99517 13.9043 3.37215C13.9044 3.37217 13.9044 3.37218 13.9044 3.37219L14.871 4.33892C14.8711 4.33899 14.8711 4.33905 14.8712 4.33911C15.2456 4.7183 15.2441 5.32856 14.8679 5.70583ZM4.47503 10.1912C4.47538 10.1908 4.47547 10.1907 4.47515 10.191L4.47513 10.1911C4.47511 10.1911 4.47508 10.1911 4.47503 10.1912ZM5.52943 10.3816L11.582 4.32842L13.9154 6.66188L7.86278 12.7151L5.52943 10.3816ZM5.08301 11.2245L7.01627 13.1578L4.1133 14.1244L5.08301 11.2245Z"  stroke="#2B2B2B" stroke-width="1"/>
</svg>
