<svg width="16" height="16" viewBox="0 0 16 16" fill="none" xmlns="http://www.w3.org/2000/svg">
<path d="M0.564544 3.41774H1.18417L2.62995 15.5039C2.65749 15.7933 2.90534 16 3.19449 16H12.8055C13.0947 16 13.3287 15.7933 13.3701 15.5039L14.8158 3.41774H15.4355C15.7522 3.41774 16 3.16968 16 2.85271C16 2.53574 15.7522 2.28768 15.4355 2.28768H14.3064H11.1119V0.56503C11.1119 0.248062 10.864 0 10.5473 0H5.45267C5.13597 0 4.88812 0.248062 4.88812 0.56503V2.28768H1.69363H0.564544C0.247849 2.28768 0 2.53574 0 2.85271C0 3.16968 0.261618 3.41774 0.564544 3.41774ZM6.01721 1.13006H9.98279V2.28768H6.01721V1.13006ZM13.673 3.41774L12.3098 14.8837H3.69019L2.32702 3.41774H13.673Z" fill="#2B2B2B"/>
<path d="M6.51837 13.0372C6.8508 13.0372 7.11097 12.7952 7.11097 12.486V5.88472C7.11097 5.5755 6.8508 5.3335 6.51837 5.3335C6.18594 5.3335 5.92578 5.5755 5.92578 5.88472V12.486C5.92578 12.7952 6.18594 13.0372 6.51837 13.0372Z" fill="#2B2B2B"/>
<path d="M9.48126 13.0372C9.81369 13.0372 10.0739 12.7952 10.0739 12.486V5.88472C10.0739 5.5755 9.81369 5.3335 9.48126 5.3335C9.14883 5.3335 8.88867 5.5755 8.88867 5.88472V12.486C8.88867 12.7952 9.16329 13.0372 9.48126 13.0372Z" fill="#2B2B2B"/>
</svg>
