<svg width="18" height="18" viewBox="0 0 18 18" fill="none" xmlns="http://www.w3.org/2000/svg">
<path d="M1.52318 6.56798L1.52318 6.56796C1.19323 5.69301 1.02568 4.89105 1.025 4.22127C1.02433 3.55314 1.19007 3.00345 1.54233 2.65147L1.52318 6.56798ZM1.52318 6.56798C2.24937 8.4927 3.68059 10.5809 5.54991 12.4502C7.41869 14.319 9.5064 15.7502 11.4311 16.4759C12.309 16.8072 13.1127 16.975 13.7836 16.975C14.4495 16.975 14.9978 16.8093 15.3477 16.4589C15.4285 16.3785 15.5146 16.2965 15.604 16.2113C15.6171 16.1987 15.6304 16.1861 15.6437 16.1734L15.6461 16.1711C15.9571 15.8759 16.2973 15.553 16.5543 15.1906C16.813 14.8256 16.993 14.413 16.9736 13.9382L16.9736 13.9382C16.9464 13.2811 16.5395 12.6626 15.7719 12.0457C14.6472 11.1415 13.8593 10.8714 13.2216 10.9728C12.5944 11.0726 12.1436 11.5299 11.6914 11.9886L11.6794 12.0008L11.6792 12.001L11.5128 12.169C11.5127 12.169 11.5127 12.1691 11.5126 12.1692C11.4675 12.2141 11.4022 12.2379 11.3111 12.2382C11.2188 12.2385 11.1086 12.2142 10.9885 12.1716C10.7486 12.0866 10.4928 11.9373 10.3057 11.8157C9.71356 11.4309 8.96757 10.7913 8.08794 9.9117C6.73998 8.56376 6.14759 7.72084 5.90934 7.20262C5.79049 6.94411 5.76284 6.7729 5.76837 6.66391C5.77375 6.5579 5.81047 6.50814 5.83106 6.4875C5.8311 6.48745 5.83115 6.48741 5.83119 6.48737L5.99646 6.32369L5.99666 6.32349L6.01001 6.31034C6.46931 5.85809 6.92722 5.4072 7.02766 4.78018C7.12985 4.14213 6.85998 3.35385 5.95497 2.22832M1.52318 6.56798L1.82816 2.35509M1.82816 2.35509L1.82823 2.35502C2.12442 2.04353 2.44784 1.70367 2.81101 1.44681C3.17569 1.18888 3.58781 1.00917 4.06247 1.0261L4.06305 1.02612C4.71911 1.05329 5.3381 1.46072 5.95497 2.22832M1.82816 2.35509L1.81915 2.36458M1.82816 2.35509L1.81915 2.36458M5.95497 2.22832L5.87702 2.29096M5.95497 2.22832L5.87702 2.29096M5.87702 2.29096C5.26781 1.53289 4.67289 1.15147 4.05891 1.12604L5.87702 2.29096ZM2.35726 2.85781L2.35725 2.85782L2.34748 2.8681C2.24938 2.97131 2.15316 3.07255 2.05828 3.16742L2.05824 3.16746C1.84564 3.37983 1.73579 3.78379 1.75726 4.34115C1.77853 4.89315 1.92804 5.57338 2.20616 6.31092C2.89385 8.13354 4.26337 10.1318 6.06639 11.9348L2.35726 2.85781ZM2.35726 2.85781C2.61144 2.59032 2.87522 2.313 3.15292 2.10177C3.43094 1.89028 3.7107 1.75473 3.99534 1.75473C4.00935 1.75473 4.02114 1.75474 4.03261 1.75518C4.4344 1.77243 4.89009 2.06827 5.38694 2.68472C6.13545 3.61566 6.35267 4.18369 6.30281 4.61155C6.27802 4.82429 6.18617 5.01242 6.043 5.20313C5.89853 5.39558 5.70651 5.5848 5.48533 5.80238L5.4852 5.80251L5.31621 5.96938L5.31568 5.96991C5.1204 6.16563 5.02407 6.40952 5.028 6.69763C5.03188 6.9818 5.13303 7.30512 5.32269 7.66785C5.70174 8.39279 6.45035 9.30471 7.57249 10.4266C8.48146 11.3361 9.268 12.0102 9.90848 12.4268L9.90851 12.4268C10.3698 12.7266 10.7798 12.9063 11.1341 12.9544C11.4929 13.0031 11.797 12.9164 12.0293 12.6838L12.0296 12.6835L12.1992 12.5124L12.1993 12.5123C12.4169 12.2916 12.6061 12.1 12.7985 11.956C12.9891 11.8132 13.1771 11.7216 13.3897 11.697C13.8174 11.6476 14.3851 11.865 15.3155 12.6132L15.3155 12.6132C15.9326 13.1091 16.2284 13.5653 16.245 13.9671C16.2572 14.2586 16.1251 14.5448 15.912 14.8294C15.699 15.1137 15.4153 15.3835 15.142 15.6433C15.0351 15.7444 14.9303 15.8438 14.8323 15.9419C14.6201 16.154 14.2162 16.2639 13.659 16.2426C13.107 16.2215 12.4268 16.0721 11.6893 15.7935L11.6893 15.7934M2.35726 2.85781L11.6893 15.7934M11.6893 15.7934C9.86612 15.1063 7.86891 13.7368 6.0664 11.9348L11.6893 15.7934ZM1.81915 2.36458C1.72364 2.46523 1.63218 2.56161 1.54236 2.65144L1.81915 2.36458Z" fill="#2B2B2B" stroke="#2B2B2B" stroke-width="0.2"/>
</svg>
