<svg width="16" height="12" viewBox="0 0 16 12" fill="none" xmlns="http://www.w3.org/2000/svg">
<g clip-path="url(#clip0)">
<path d="M15.4559 2.04285L15.4558 2.04294L7.00671 10.8758L7.00634 10.8762C6.81995 11.0719 6.56981 11.1786 6.30965 11.1786C6.04994 11.1786 5.79945 11.0712 5.61259 10.8758L0.544815 5.57724L0.544638 5.57705C0.15174 5.1671 0.151864 4.49806 0.54455 4.08875L0.544815 4.08847C0.931446 3.68423 1.55233 3.68437 1.93835 4.08838L1.93844 4.08848L6.12849 8.46884L6.30916 8.65772L6.48982 8.46883L14.0607 0.55314C14.4474 0.148848 15.0682 0.149121 15.4536 0.552956L15.4542 0.553509C15.8484 0.963984 15.8483 1.63303 15.4559 2.04285Z" fill="#2B2B2B" stroke="#E8EBF2" stroke-width="0.5"/>
</g>
<defs>
<clipPath id="clip0">
<rect width="16" height="11.4286" fill="white"/>
</clipPath>
</defs>
</svg>
