<svg width="19" height="10" viewBox="0 0 19 10" fill="none" xmlns="http://www.w3.org/2000/svg">
<path d="M0.217693 4.42915C0.217916 4.42891 0.218102 4.42863 0.218361 4.42839L4.09644 0.234836C4.38697 -0.0793172 4.85688 -0.0781481 5.14608 0.237578C5.43523 0.553264 5.43412 1.06387 5.14359 1.37806L2.53985 4.19355H18.2578C18.6677 4.19355 19 4.5546 19 5C19 5.4454 18.6677 5.80645 18.2578 5.80645H2.53988L5.14355 8.62194C5.43408 8.93613 5.43519 9.44674 5.14604 9.76242C4.85684 10.0782 4.38689 10.0793 4.0964 9.76516L0.218325 5.57161C0.218102 5.57137 0.217915 5.57109 0.217655 5.57085C-0.0730228 5.25561 -0.072094 4.74335 0.217693 4.42915Z" fill="#2B2B2B"/>
</svg>
