<svg width="19" height="15" viewBox="0 0 19 15" fill="none" xmlns="http://www.w3.org/2000/svg">
<path d="M2.49414 1H16.5059C17.3287 1 18 1.67057 18 2.49414V12.4551C18 13.2759 17.3317 13.9492 16.5059 13.9492H2.49414C1.67336 13.9492 1 13.2809 1 12.4551V2.49414C1 1.67336 1.66831 1 2.49414 1ZM2.70046 1.99609L9.46832 8.76399L16.2947 1.99609H2.70046ZM17.0039 12.2488V2.69565L12.2068 7.45167L17.0039 12.2488ZM16.2996 12.9531L11.4994 8.15295L9.81742 9.82048C9.62272 10.0135 9.30852 10.0129 9.11461 9.81895L7.47461 8.17895L2.70043 12.9531H16.2996ZM1.99609 12.2488L6.77027 7.47461L1.99609 2.7004V12.2488Z" fill="#2B2B2B" stroke="#2B2B2B"/>
</svg>
