<svg width="64" height="64" viewBox="0 0 64 64" fill="none" xmlns="http://www.w3.org/2000/svg">
<g clip-path="url(#clip0)">
<path d="M49.075 27.5155L45.2541 15.8139H48.2505C48.8027 15.8139 49.2505 15.3662 49.2505 14.8139C49.2505 14.2617 48.8027 13.814 48.2505 13.814H43.8757C43.1956 13.814 42.7144 14.4791 42.9252 15.1243L44.5789 20.1888H20.1167L19.2531 18.6926L22.4527 18.5511C23.4692 18.5061 24.3333 17.7808 24.5541 16.7876C24.8171 15.604 24.1054 14.4322 22.9341 14.12L17.5923 12.6955C16.1685 12.3158 14.674 12.7626 13.6926 13.8621C11.9712 15.7895 13.3573 18.8373 15.922 18.8373C16.0085 18.8373 15.966 18.8382 17.0016 18.7924L18.1871 20.8464L15.5476 27.6809C13.2837 27.0141 10.8603 27.0271 8.61462 27.7056C8.08601 27.8653 7.7869 28.4234 7.94664 28.9522C8.10639 29.4808 8.66462 29.7794 9.19322 29.6202C10.9754 29.0814 12.9321 29.0328 14.8234 29.5562L13.917 31.9028C9.09998 30.7391 4.50227 34.4127 4.50227 39.3133C4.50227 43.5176 7.92264 46.938 12.127 46.938C15.9922 46.938 19.1925 44.0464 19.684 40.3133H22.2017C21.6979 45.4282 17.3722 49.4379 12.1269 49.4379C4.00791 49.4379 -0.717659 40.3624 3.68155 33.727C3.98667 33.2666 3.86092 32.6462 3.40069 32.3409C2.9402 32.0358 2.31985 32.1616 2.01461 32.6218C-3.25419 40.5691 2.40322 51.4379 12.1269 51.4379C18.4756 51.4379 23.6997 46.5328 24.2099 40.3133C30.4789 40.3133 30.0529 40.3288 30.2363 40.2844C30.6924 40.1734 29.4923 41.4468 45.4335 22.8062L47.1743 28.1375C42.8168 29.9773 39.751 34.2939 39.751 39.3133C39.751 45.9988 45.19 51.4379 51.8755 51.4379C58.561 51.4379 64.0001 45.9988 64.0001 39.3133C63.9999 31.4885 56.6717 25.7125 49.075 27.5155ZM15.9635 16.8362C15.0978 16.8735 14.6015 15.846 15.1842 15.1939C15.6589 14.6623 16.3832 14.443 17.0769 14.6277L22.4189 16.0523C22.7007 16.1274 22.653 16.5401 22.3642 16.553L15.9635 16.8362ZM19.4715 23.0714L28.2694 38.3131H24.2099C23.8519 33.9487 21.1729 30.2319 17.4125 28.4027L19.4715 23.0714ZM16.6881 30.2785C19.7028 31.8068 21.8554 34.7977 22.2017 38.3131H19.684C19.3608 35.8584 17.8674 33.7678 15.7824 32.6238L16.6881 30.2785ZM15.0533 34.5115C16.3983 35.3343 17.3712 36.7064 17.6608 38.3132H13.5851L15.0533 34.5115ZM12.1269 44.9378C9.02535 44.9378 6.50207 42.4146 6.50207 39.313C6.50207 35.8077 9.70158 33.1216 13.1879 33.79L11.194 38.9528C10.9419 39.6055 11.4229 40.313 12.1269 40.313H17.6608C17.1876 42.9389 14.887 44.9378 12.1269 44.9378ZM30.1603 37.5885L21.2711 22.1887H43.3297L30.1603 37.5885ZM51.8754 49.4377C46.2927 49.4377 41.7508 44.8957 41.7508 39.313C41.7508 35.1804 44.2409 31.6205 47.7984 30.0486L48.5788 32.4387C46.0205 33.6704 44.2507 36.2889 44.2507 39.3132C44.2507 43.5175 47.671 46.9379 51.8754 46.9379C56.0797 46.9379 59.5001 43.5175 59.5001 39.3132C59.5001 34.5857 55.2013 30.9416 50.4801 31.8187L49.699 29.4267C56.0184 28.0362 61.9999 32.8627 61.9999 39.3132C62 44.8957 57.4581 49.4377 51.8754 49.4377ZM50.9248 39.6235C51.0967 40.1501 51.6624 40.4346 52.1857 40.2636C52.7107 40.0923 52.9973 39.5277 52.8258 39.0027L51.108 33.742C54.5035 33.2765 57.5 35.9239 57.5 39.313C57.5 42.4146 54.9768 44.9378 51.8753 44.9378C48.7738 44.9378 46.2505 42.4146 46.2505 39.313C46.2505 37.1765 47.4479 35.3146 49.207 34.3627L50.9248 39.6235Z" fill="#807979"/>
<path d="M4.42193 30.8834C4.63793 31.4018 5.22843 31.6333 5.72818 31.4247C6.2398 31.2114 6.48093 30.6261 6.26943 30.1184C6.02205 29.5259 5.30305 29.3246 4.79068 29.6697C4.39205 29.9327 4.24105 30.4479 4.42193 30.8834Z" fill="#807979"/>
</g>
<defs>
<clipPath id="clip0">
<rect width="64" height="64" fill="white"/>
</clipPath>
</defs>
</svg>
