<svg width="50" height="50" viewBox="0 0 50 50" fill="none" xmlns="http://www.w3.org/2000/svg">
<g clip-path="url(#clip0)">
<path d="M49.0703 44.7226L31.8871 27.9911L44.5064 6.96037C44.9349 6.24685 45.1613 5.42898 45.1613 4.59614C45.1613 2.0622 43.0991 0 40.5659 0H4.59536C2.0622 0 0 2.0622 0 4.59614C0 5.42898 0.226421 6.24685 0.654848 6.95958L18.3653 36.4782C19.1918 37.8548 20.7015 38.7097 22.3066 38.7097H22.8547C24.4597 38.7097 25.9695 37.8548 26.796 36.4782L28.9563 32.8775L44.7226 49.0695C45.2967 49.6614 46.1001 50 46.9258 50C48.621 50 50 48.621 50 46.925C50 46.1001 49.6614 45.2967 49.0703 44.7226ZM22.0203 18.3838C22.3853 17.6919 22.5806 16.9256 22.5806 16.129C22.5806 14.78 22.0242 13.5589 21.1308 12.6807C21.5887 12.8249 22.0758 12.9032 22.5806 12.9032C23.0855 12.9032 23.5726 12.8249 24.0305 12.6807C23.1371 13.5589 22.5806 14.78 22.5806 16.129C22.5806 18.7976 24.7507 20.9677 27.4194 20.9677C30.088 20.9677 32.2581 18.7976 32.2581 16.129C32.2581 14.78 31.7017 13.5589 30.8082 12.6807C31.2661 12.8249 31.7532 12.9032 32.2581 12.9032C34.9267 12.9032 37.0968 10.7331 37.0968 8.06452C37.0968 6.82412 36.6242 5.69596 35.8548 4.83871H40.1363L28.3258 24.5235L22.0203 18.3838ZM15.3226 17.849C15.3226 17.9991 15.3395 18.1467 15.3655 18.2913C14.8426 17.7187 14.5161 16.9638 14.5161 16.129C14.5161 14.35 15.9629 12.9032 17.7419 12.9032C19.521 12.9032 20.9677 14.35 20.9677 16.129C20.9677 16.4937 20.9039 16.8477 20.7878 17.184L19.612 16.0396C19.1371 15.5766 18.5114 15.3226 17.849 15.3226C16.4555 15.3226 15.3226 16.4563 15.3226 17.849ZM30.6452 16.129C30.6452 17.9081 29.1984 19.3548 27.4194 19.3548C25.6403 19.3548 24.1935 17.9081 24.1935 16.129C24.1935 14.35 25.6403 12.9032 27.4194 12.9032C29.1984 12.9032 30.6452 14.35 30.6452 16.129ZM35.4839 8.06452C35.4839 9.84359 34.0371 11.2903 32.2581 11.2903C30.479 11.2903 29.0323 9.84359 29.0323 8.06452C29.0323 6.28544 30.479 4.83871 32.2581 4.83871C34.0371 4.83871 35.4839 6.28544 35.4839 8.06452ZM28.8692 11.5128C28.4113 11.3687 27.9242 11.2903 27.4194 11.2903C26.9145 11.2903 26.4274 11.3687 25.9695 11.5128C26.863 10.6347 27.4194 9.41359 27.4194 8.06452C27.4194 6.82412 26.9468 5.69596 26.1774 4.83871H28.6621C27.8919 5.69596 27.4194 6.82412 27.4194 8.06452C27.4194 9.41359 27.9758 10.6347 28.8692 11.5128ZM25.8065 8.06452C25.8065 9.84359 24.3597 11.2903 22.5806 11.2903C20.8016 11.2903 19.3548 9.84359 19.3548 8.06452C19.3548 6.28544 20.8016 4.83871 22.5806 4.83871C24.3597 4.83871 25.8065 6.28544 25.8065 8.06452ZM19.1918 11.5128C18.7339 11.3687 18.2468 11.2903 17.7419 11.2903C17.2371 11.2903 16.75 11.3687 16.2921 11.5128C17.1855 10.6347 17.7419 9.41359 17.7419 8.06452C17.7419 6.82412 17.2694 5.69596 16.5 4.83871H18.9847C18.2145 5.69596 17.7419 6.82412 17.7419 8.06452C17.7419 9.41359 18.2983 10.6347 19.1918 11.5128ZM16.129 8.06452C16.129 9.84359 14.6823 11.2903 12.9032 11.2903C11.1241 11.2903 9.67742 9.84359 9.67742 8.06452C9.67742 6.28544 11.1241 4.83871 12.9032 4.83871C14.6823 4.83871 16.129 6.28544 16.129 8.06452ZM12.9032 12.9032C13.408 12.9032 13.8951 12.8249 14.3531 12.6807C13.4596 13.5589 12.9032 14.78 12.9032 16.129C12.9032 18.6614 14.8587 20.7413 17.3387 20.9477L18.3039 21.9388C17.938 22.6299 17.7419 23.3969 17.7419 24.1935C17.7419 26.8622 19.912 29.0323 22.5806 29.0323C23.3316 29.0323 24.0605 28.859 24.7224 28.5306L25.4647 29.2929L22.7177 33.871H22.4444L5.02418 4.83871H9.30648C8.53705 5.69596 8.06452 6.82412 8.06452 8.06452C8.06452 10.7331 10.2346 12.9032 12.9032 12.9032ZM19.5163 23.1839L23.5072 27.2823C23.2087 27.3717 22.8976 27.4194 22.5806 27.4194C20.8016 27.4194 19.3548 25.9726 19.3548 24.1935C19.3548 23.8458 19.4104 23.5064 19.5163 23.1839ZM17.1942 18.487C17.0272 18.3153 16.9355 18.0889 16.9355 17.849C16.9355 17.345 17.345 16.9355 17.849 16.9355C18.0889 16.9355 18.3153 17.0272 18.487 17.1942L39.4653 37.6209L37.6209 39.4645L17.1942 18.487ZM40.6203 38.7459L41.9162 40.008L40.0072 41.9162L38.7451 40.6203L40.6203 38.7459ZM25.4131 35.6485C24.8767 36.5419 23.8966 37.0968 22.8547 37.0968H22.3066C21.2646 37.0968 20.2845 36.5419 19.7482 35.6485L2.03779 6.1299C1.76057 5.66682 1.6129 5.1364 1.6129 4.59614C1.6129 2.95095 2.95095 1.6129 4.59536 1.6129H40.5659C42.2103 1.6129 43.5484 2.95095 43.5484 4.59614C43.5484 5.1364 43.4007 5.66682 43.1235 6.1299L30.6999 26.8354L29.5138 25.6797L41.7394 5.30179C41.8678 5.08954 41.9355 4.84422 41.9355 4.59536C41.9355 3.84049 41.3208 3.22581 40.5659 3.22581H4.59536C3.84049 3.22581 3.22581 3.84049 3.22581 4.59536C3.22581 4.84343 3.29275 5.08718 3.42112 5.301L21.1323 34.8192C21.38 35.2299 21.8289 35.4839 22.3066 35.4839H22.8547C23.3316 35.4839 23.7805 35.2307 24.0297 34.8192L26.6283 30.488L27.7919 31.6832L25.4131 35.6485ZM46.9258 48.3871C46.534 48.3871 46.1516 48.2257 45.8784 47.9453L41.133 43.0719L43.0727 41.133L47.9461 45.8784C48.2257 46.1516 48.3871 46.5332 48.3871 46.925C48.3871 47.7315 47.7315 48.3871 46.9258 48.3871Z" fill="#807979"/>
</g>
<defs>
<clipPath id="clip0">
<rect width="50" height="50" fill="white"/>
</clipPath>
</defs>
</svg>
