<svg width="52" height="52" viewBox="0 0 52 52" fill="none" xmlns="http://www.w3.org/2000/svg">
<path d="M6.88566 49.7272C18.4515 53.6775 31.5689 49.4001 40.4844 40.4846C49.8528 31.1162 53.476 17.9317 49.7102 6.8859C48.968 4.71806 47.2651 3.01521 45.0973 2.273C29.2792 -3.11152 9.46889 6.91106 2.85147 25.002C0.363585 31.4488 0.162276 38.5538 2.28115 45.1311C3.02596 47.2906 4.72472 48.9863 6.88566 49.7272ZM3.53082 28.3904C6.65157 37.9122 14.1303 45.3722 23.6599 48.4691C21.8531 48.9528 20.0058 49.27 18.1411 49.4169C10.7798 47.0329 5.00902 41.2621 2.62502 33.9007C2.75882 32.0402 3.06201 30.1958 3.53082 28.3904ZM3.85792 44.5775C3.16937 42.5256 2.74108 40.3954 2.58308 38.2369C5.03801 43.0489 8.95104 46.9619 13.7631 49.4169C11.6045 49.2589 9.47432 48.8306 7.42244 48.142C5.74997 47.5642 4.43574 46.25 3.85792 44.5775ZM33.9005 2.58332C41.2618 4.96732 47.0326 10.7381 49.4166 18.0994C49.2698 19.9641 48.9525 21.8114 48.4689 23.6182C45.357 14.08 37.878 6.60103 28.3399 3.48913C30.1617 3.01747 32.0231 2.71426 33.9005 2.58332ZM48.1586 7.42268C48.8471 9.47456 49.2754 11.6048 49.4334 13.7633C46.973 8.94168 43.047 5.02446 38.2199 2.57493C40.3848 2.73167 42.521 3.16286 44.5773 3.85816C46.2497 4.43598 47.564 5.75021 48.1418 7.42268H48.1586ZM25.4044 4.47042C36.0644 6.63429 45.3489 15.9356 47.5211 26.5788C43.8614 36.251 36.2256 43.8868 26.5534 47.5465C15.9353 45.3491 6.65082 36.0646 4.47857 25.4214C8.1441 15.7713 15.7587 8.14754 25.4044 4.47042Z" fill="#807979"/>
<path d="M25.8571 21.7392C25.5244 21.4543 25.0283 21.4734 24.7185 21.7832C24.4088 22.093 24.3896 22.589 24.6746 22.9218L26.2849 24.5321L24.532 26.285L22.9217 24.6747C22.5889 24.3897 22.0929 24.4089 21.7831 24.7187C21.4733 25.0285 21.4541 25.5245 21.7391 25.8573L23.3494 27.4676L21.5965 29.2205L19.9862 27.6102C19.6534 27.3252 19.1574 27.3444 18.8476 27.6542C18.5378 27.964 18.5186 28.46 18.8036 28.7928L20.4139 30.4031L18.661 32.156L17.0507 30.5457C16.7179 30.2607 16.2219 30.2799 15.9121 30.5897C15.6023 30.8994 15.5831 31.3955 15.8681 31.7283L17.4784 33.3386L15.7255 35.0915L14.1152 33.4812C13.7824 33.1962 13.2864 33.2153 12.9766 33.5251C12.6668 33.8349 12.6477 34.331 12.9326 34.6637L14.543 36.2741L13.6623 37.1128C13.3943 37.3483 13.3046 37.7275 13.4387 38.0582C13.5728 38.3888 13.9014 38.5983 14.2578 38.5805C14.7107 38.5805 14.8449 38.3373 15.7255 37.4566C17.403 39.1341 17.4617 39.3186 17.9313 39.3186C18.2706 39.3172 18.5755 39.1115 18.704 38.7976C18.8325 38.4837 18.7593 38.1233 18.5184 37.8844L16.9081 36.2741L18.661 34.5212C20.3384 36.1986 20.3971 36.3831 20.8668 36.3831C21.206 36.3817 21.511 36.1761 21.6395 35.8621C21.768 35.5482 21.6948 35.1878 21.4539 34.9489L19.8436 33.3386L21.5965 31.5857C23.2739 33.2631 23.3326 33.4476 23.8023 33.4476C24.1415 33.4462 24.4465 33.2406 24.575 32.9266C24.7035 32.6127 24.6303 32.2523 24.3894 32.0134L22.7791 30.4031L24.532 28.6502C26.2094 30.3276 26.2681 30.5121 26.7378 30.5121C27.077 30.5107 27.382 30.3051 27.5105 29.9912C27.639 29.6772 27.5657 29.3168 27.3249 29.0779L25.7146 27.4676L27.4675 25.7147C29.1449 27.3921 29.2036 27.5766 29.6733 27.5766C30.0125 27.5752 30.3174 27.3696 30.446 27.0557C30.5745 26.7418 30.5012 26.3813 30.2604 26.1425L28.6501 24.5321L30.403 22.7792C32.0804 24.4566 32.1391 24.6412 32.6088 24.6412C32.948 24.6397 33.2529 24.4341 33.3814 24.1202C33.5099 23.8063 33.4367 23.4458 33.1959 23.207L31.5855 21.5966L33.3384 19.8437C35.0159 21.5212 35.0746 21.7057 35.5442 21.7057C35.8835 21.7043 36.1884 21.4986 36.3169 21.1847C36.4454 20.8708 36.3722 20.5104 36.1313 20.2715L34.521 18.6612L36.2739 16.9083C37.9513 18.5857 38.0101 18.7702 38.4797 18.7702C38.8189 18.7688 39.1239 18.5632 39.2524 18.2492C39.3809 17.9353 39.3077 17.5749 39.0668 17.336L37.4565 15.7257L38.3371 14.887C38.666 14.5581 38.666 14.0249 38.3371 13.696C38.0083 13.3671 37.4751 13.3671 37.1462 13.696L36.3075 14.5766L34.6971 12.9663C34.3644 12.6814 33.8683 12.7005 33.5585 13.0103C33.2488 13.3201 33.2296 13.8161 33.5146 14.1489L35.1249 15.7592L33.372 17.5121L31.7617 15.9018C31.4289 15.6168 30.9329 15.636 30.6231 15.9458C30.3133 16.2556 30.2941 16.7516 30.5791 17.0844L32.1894 18.6947L30.4365 20.4476L28.8262 18.8373C28.4934 18.5523 27.9974 18.5715 27.6876 18.8813C27.3778 19.1911 27.3586 19.6871 27.6436 20.0199L29.2539 21.6302L27.501 23.3831L25.8571 21.7392Z" fill="#807979"/>
<path d="M7.46427 24.3228C7.86297 24.5518 8.37174 24.4171 8.60491 24.0208C14.9875 12.9834 22.5778 9.91374 22.6449 9.8718C23.078 9.70505 23.2939 9.21877 23.1272 8.78567C22.9604 8.35258 22.4741 8.13666 22.041 8.30342C21.7056 8.43761 13.8385 11.566 7.1204 23.1654C7.00829 23.3636 6.9816 23.5988 7.04645 23.8171C7.11131 24.0354 7.26213 24.2179 7.46427 24.3228Z" fill="#807979"/>
<path d="M24.792 8.73929C25.2645 8.73929 25.6475 8.35627 25.6475 7.8838C25.6475 7.41133 25.2645 7.02832 24.792 7.02832C24.3195 7.02832 23.9365 7.41133 23.9365 7.8838C23.9365 8.35627 24.3195 8.73929 24.792 8.73929Z" fill="#807979"/>
</svg>
