<svg width="56" height="56" viewBox="0 0 56 56" fill="none" xmlns="http://www.w3.org/2000/svg">
<path d="M51.625 42.8747C50.9291 42.8755 50.2619 43.1523 49.7697 43.6445C49.2776 44.1366 49.0008 44.8038 49 45.4997C48.999 46.4277 48.6299 47.3173 47.9737 47.9734C47.3176 48.6296 46.4279 48.9987 45.5 48.9997H30.6513V48.7394C30.6519 47.867 30.3777 47.0165 29.8676 46.3087C29.3575 45.6009 28.6374 45.0718 27.8096 44.7964L25.2547 43.9453L30.7498 30.8938C30.903 30.5291 31.0004 30.1434 31.0387 29.7497H36.5695L38.1348 30.5323C38.2563 30.5931 38.3902 30.6247 38.526 30.6247H40.9323C41.6862 30.6239 42.4091 30.324 42.9422 29.7909C43.4753 29.2577 43.7752 28.5349 43.776 27.781V25.3747C43.776 25.1427 43.6839 24.9201 43.5198 24.756C43.3557 24.5919 43.1331 24.4997 42.901 24.4997H41.3577L39.7924 23.7171C39.6709 23.6564 39.5369 23.6248 39.4011 23.6248C39.2653 23.6248 39.1313 23.6564 39.0098 23.7171L38.9621 23.741L35.4634 21.6941C35.5554 21.4677 35.6331 21.2358 35.6962 20.9997H36.6894L37.8859 21.239C39.8936 21.6465 41.981 21.3088 43.7579 20.2892L45.9156 21.7277C46.0372 21.8088 46.1772 21.8581 46.3227 21.8711C46.4682 21.8842 46.6147 21.8606 46.7488 21.8025C46.8828 21.7444 47.0002 21.6537 47.0902 21.5386C47.1802 21.4235 47.24 21.2877 47.264 21.1435L48.1016 16.1184L48.5384 15.5723C49.0779 14.899 49.4682 14.1189 49.6836 13.2835C49.899 12.4481 49.9346 11.5764 49.788 10.7263C49.6413 9.87608 49.3159 9.06672 48.8331 8.35171C48.3504 7.63671 47.7213 7.03235 46.9875 6.57862C47.2066 6.0459 47.2908 5.46735 47.2326 4.8943C47.1745 4.32124 46.9758 3.77139 46.6542 3.29352C46.3327 2.81564 45.8981 2.42452 45.3891 2.15485C44.8802 1.88518 44.3125 1.74529 43.7365 1.74759C43.1605 1.74989 42.594 1.89431 42.0872 2.16804C41.5804 2.44177 41.149 2.83635 40.8312 3.31677C40.5135 3.7972 40.3192 4.34862 40.2657 4.92212C40.2121 5.49562 40.3009 6.07348 40.5242 6.60443C40.1541 6.83766 39.8103 7.11008 39.4986 7.41698C39.4962 7.41939 39.4935 7.42168 39.4911 7.42409C39.4822 7.43295 39.4729 7.44104 39.464 7.4499L36.7962 10.1176L30.7149 3.36026C30.2443 2.83948 29.6163 2.4869 28.9266 2.35629C28.237 2.22568 27.5235 2.32421 26.8951 2.63686L26.0281 3.07031C25.8254 3.17105 25.6021 3.22348 25.3758 3.22348C25.1494 3.22348 24.9262 3.17105 24.7235 3.07031L22.2663 1.84214C22.121 1.76945 21.9583 1.73868 21.7964 1.75326C21.6346 1.76785 21.48 1.82722 21.35 1.92472L17.85 4.54972C17.7242 4.64395 17.6262 4.77033 17.5661 4.91555C17.5061 5.06078 17.4862 5.2195 17.5087 5.37504C17.5312 5.53058 17.5951 5.6772 17.6938 5.79949C17.7925 5.92178 17.9223 6.01523 18.0696 6.07003C18.109 6.08468 22.0328 7.54659 24.0045 8.26759C24.4796 8.44066 24.9888 8.49935 25.4908 8.43893C25.9928 8.3785 26.4736 8.20064 26.894 7.91978C27.1748 7.7323 27.5119 7.64782 27.848 7.68068C28.184 7.71353 28.4983 7.86171 28.7375 8.10003L29.8641 9.22659C25.2683 8.5971 20.59 9.00141 16.1703 10.41L5.46657 4.1482L6.03258 3.01606C6.13424 2.80876 6.14984 2.56968 6.07598 2.35093C6.00213 2.13218 5.84481 1.95148 5.63831 1.84822C5.43181 1.74495 5.19286 1.72749 4.97354 1.79963C4.75422 1.87178 4.5723 2.02768 4.46743 2.23337L3.95271 3.2627L3.06688 2.74503C2.86658 2.62784 2.62793 2.59501 2.40343 2.65378C2.17893 2.71254 1.98696 2.85809 1.86977 3.05839C1.75258 3.25869 1.71976 3.49734 1.77852 3.72184C1.83729 3.94634 1.98283 4.1383 2.18313 4.2555L3.16849 4.8319L2.71743 5.73392C2.66497 5.8368 2.6334 5.94904 2.62454 6.06418C2.61567 6.17932 2.62968 6.29508 2.66577 6.40478C2.70185 6.51448 2.7593 6.61595 2.83478 6.70334C2.91027 6.79073 3.00231 6.86232 3.1056 6.91397C3.20889 6.96562 3.32137 6.99631 3.43658 7.00428C3.55179 7.01225 3.66743 6.99733 3.77684 6.96039C3.88626 6.92345 3.98727 6.86522 4.07408 6.78905C4.16088 6.71289 4.23174 6.62029 4.28258 6.51661L4.68224 5.7174L14.0391 11.1906C12.9299 11.7034 11.9734 12.4963 11.2639 13.4911V13.4919C10.3938 14.7111 9.93442 16.1755 9.95211 17.6732C9.96981 19.1709 10.4637 20.624 11.3623 21.8223L19.1833 31.7044L15.8476 43.3778L15.431 44.0028C14.5135 45.3762 14.0245 46.9911 14.026 48.6428V48.9997H4.37501C3.67881 48.9997 3.01113 49.2763 2.51885 49.7686C2.02657 50.2608 1.75001 50.9285 1.75001 51.6247C1.75001 52.3209 2.02657 52.9886 2.51885 53.4809C3.01113 53.9732 3.67881 54.2497 4.37501 54.2497H45.5C47.8198 54.2471 50.0439 53.3244 51.6843 51.684C53.3247 50.0436 54.2474 47.8195 54.25 45.4997C54.2492 44.8038 53.9724 44.1366 53.4803 43.6445C52.9882 43.1523 52.3209 42.8755 51.625 42.8747ZM28.9013 48.7394V48.9997H27.1513V48.7397C27.152 47.7809 26.8207 46.8513 26.2136 46.1091L27.2561 46.4566C27.7354 46.6161 28.1523 46.9224 28.4476 47.3322C28.7429 47.7419 28.9016 48.2343 28.9013 48.7394ZM29.1375 30.2141L23.254 44.1892L23.2521 44.1937L23.1596 44.4135L22.0617 44.0475C22.8412 41.3383 25.8148 32.8294 26.7211 30.2476C26.7796 30.0793 26.8265 29.9072 26.8614 29.7324C26.9757 29.7426 27.0911 29.7497 27.2074 29.7497H29.2746C29.2462 29.9091 29.2002 30.0649 29.1375 30.2141ZM34.125 12.2497H35.875V17.4905C35.809 16.9176 35.6181 16.3661 35.3158 15.875C35.0134 15.3839 34.6069 14.9652 34.125 14.6483V12.2497ZM40.0583 9.32995L41.7175 11.3206L40.3351 12.703L38.6762 10.712L40.0583 9.32995ZM43.694 18.0944L42.026 16.8435C41.755 16.6391 41.5349 16.3748 41.3831 16.0712C41.2313 15.7676 41.1519 15.4329 41.151 15.0935V14.3623L42.901 12.6123L46.0387 15.7497L43.694 18.0944ZM34.151 17.9372V19.4565C34.152 20.2019 33.9517 20.9336 33.5714 21.5746C33.5673 21.5812 33.5627 21.5871 33.5589 21.5937C33.5551 21.6004 33.5528 21.6059 33.5494 21.6119C33.2962 22.0286 32.9719 22.3975 32.5911 22.702L32.0598 23.1271L29.3243 20.9387L29.5171 20.746C29.5993 20.6647 29.6646 20.568 29.7091 20.4613C29.7535 20.3547 29.7764 20.2403 29.7763 20.1247C29.7763 20.1233 29.7763 20.1219 29.7763 20.1204V17.9372C29.7763 17.3571 30.0067 16.8007 30.417 16.3904C30.8272 15.9802 31.3836 15.7497 31.9638 15.7497C32.5439 15.7497 33.1003 15.9802 33.5106 16.3904C33.9208 16.8007 34.1513 17.3571 34.1513 17.9372H34.151ZM25.4612 22.3272L24.4952 20.9997H26.7887L25.4612 22.3272ZM25.7595 24.5038L28.0794 22.1838L30.6592 24.2482L30.1045 24.692C29.9629 24.8053 29.86 24.9598 29.81 25.1341C29.76 25.3084 29.7654 25.4939 29.8255 25.665C29.8855 25.8361 29.9972 25.9843 30.1452 26.0892C30.2932 26.194 30.47 26.2503 30.6514 26.2503H35V28.0003C35 28.0003 26.6571 27.9434 26.4097 27.8393C26.3959 27.8331 26.3821 27.8273 26.3681 27.8219C26.0657 27.6857 25.8008 27.4781 25.5962 27.217C25.3916 26.9559 25.2535 26.649 25.1936 26.3227C25.1338 25.9965 25.154 25.6606 25.2525 25.3438C25.3511 25.0271 25.5251 24.739 25.7595 24.5043V24.5038ZM40.7598 26.1573C40.8813 26.2181 41.0152 26.2497 41.151 26.2497H42.026V27.781C42.0257 28.0709 41.9104 28.349 41.7053 28.554C41.5003 28.7591 41.2223 28.8744 40.9323 28.8747H38.7327L37.1674 28.0921C37.0459 28.0313 36.9119 27.9997 36.776 27.9997H36.75V26.2497H37.651C37.7869 26.2497 37.9209 26.2181 38.0424 26.1573L39.401 25.478L40.7598 26.1573ZM36.7938 24.4997H33.25C33.25 24.4729 33.2487 24.4462 33.2462 24.4195L33.685 24.0686C34.0083 23.8093 34.3038 23.5171 34.5664 23.1965L36.7938 24.4997ZM38.2294 19.5232L37.6516 19.4075V12.2158L39.4016 14.3158V15.0935C39.403 15.7045 39.546 16.3069 39.8193 16.8534C40.0925 17.3999 40.4886 17.8757 40.9766 18.2435L42.159 19.1304C40.9184 19.6537 39.5487 19.7906 38.2291 19.5232H38.2294ZM45.7608 19.5211L45.1498 19.1139L45.9644 18.2991L45.7608 19.5211ZM47.203 14.439L47.0223 14.2584L47.0203 14.2561L43.5481 10.7841L41.3538 8.15089C42.2128 7.57462 43.2491 7.32346 44.2766 7.4425C45.3041 7.56153 46.2556 8.04296 46.96 8.80035C47.6645 9.55774 48.076 10.5415 48.1204 11.5749C48.1649 12.6083 47.8395 13.6238 47.2026 14.4389L47.203 14.439ZM42 5.24972C41.9991 4.99216 42.0551 4.73758 42.1639 4.50416C42.2728 4.27073 42.4318 4.0642 42.6297 3.89932C42.8275 3.73444 43.0594 3.61526 43.3086 3.5503C43.5578 3.48533 43.8183 3.47618 44.0715 3.5235C44.3247 3.57082 44.5643 3.67343 44.7732 3.82403C44.9822 3.97462 45.1553 4.16948 45.2802 4.39469C45.4052 4.61991 45.4789 4.86993 45.4961 5.12691C45.5133 5.38389 45.4735 5.6415 45.3797 5.88136C44.3132 5.59268 43.1887 5.59702 42.1245 5.89393C42.0426 5.689 42.0004 5.47039 42 5.24972ZM25.9196 6.46575C25.7284 6.5934 25.5099 6.67424 25.2816 6.70171C25.0534 6.72919 24.8219 6.70253 24.6059 6.6239C23.4153 6.18826 21.5097 5.48159 20.182 4.9882L21.9674 3.64923L23.94 4.63547C24.3859 4.85711 24.8771 4.97245 25.375 4.97245C25.8729 4.97245 26.3641 4.85711 26.81 4.63547L27.6769 4.20201C27.9626 4.05992 28.2869 4.01514 28.6004 4.07452C28.9139 4.1339 29.1994 4.29417 29.4133 4.5309L34.7853 10.4997H33.6125L33.0517 9.93895L33.0503 9.93753L29.975 6.86223C29.4488 6.33792 28.7574 6.01194 28.0181 5.93966C27.2788 5.86738 26.5373 6.05327 25.9196 6.46575ZM31.0279 11.1869L32.0089 11.3711L32.375 11.7371V14.0216C31.3638 13.9154 30.3507 14.2045 29.5479 14.8283C28.745 15.4522 28.2146 16.3624 28.0676 17.3685L18.2536 11.628C22.4279 10.5461 26.789 10.3956 31.0279 11.1869ZM13.7467 13.4042C14.1581 13.0843 14.6142 12.8264 15.1003 12.6385C15.3896 12.5275 15.6815 12.4225 15.9729 12.3214L27.8171 19.2497H23.0071L16.765 15.7099L13.3318 13.763C13.4637 13.6363 13.6021 13.5165 13.7465 13.4042H13.7467ZM20.8233 30.9395L12.7619 20.7722C12.1662 19.9784 11.8053 19.0333 11.7202 18.0445C11.6351 17.0557 11.8293 16.0629 12.2806 15.179L15.2437 16.8593L22.1796 20.7926L24.2249 23.6035C23.8958 24.0215 23.6581 24.504 23.5272 25.0196C23.3963 25.5353 23.3752 26.0728 23.4652 26.5971C23.5552 27.1215 23.7543 27.6211 24.0496 28.0637C24.3449 28.5062 24.7299 28.8819 25.1796 29.1662C25.1626 29.337 25.1255 29.5052 25.069 29.6672C24.1549 32.2704 21.148 40.8762 20.3683 43.6005L17.7523 43.0774L20.9927 31.7403C21.0319 31.6032 21.037 31.4585 21.0075 31.3189C20.978 31.1793 20.9148 31.0491 20.8235 30.9395H20.8233ZM15.776 48.6425C15.7749 47.3363 16.1617 46.0592 16.8875 44.9732L17.0545 44.7227L19.5536 45.2225C19.5605 45.224 19.5674 45.2253 19.5744 45.2266L20.8015 45.472L23.7561 46.4564C24.2355 46.6157 24.6525 46.9221 24.9479 47.3319C25.2432 47.7417 25.4019 48.2341 25.4015 48.7393V48.9997H15.7765L15.776 48.6425ZM45.5 52.4997H4.37501C4.14294 52.4997 3.92038 52.4075 3.75629 52.2434C3.59219 52.0793 3.50001 51.8568 3.50001 51.6247C3.50001 51.3927 3.59219 51.1701 3.75629 51.006C3.92038 50.8419 4.14294 50.7497 4.37501 50.7497H45.5C46.8919 50.7481 48.2263 50.1945 49.2106 49.2103C50.1948 48.226 50.7484 46.8916 50.75 45.4997C50.75 45.2677 50.8422 45.0451 51.0063 44.881C51.1704 44.7169 51.3929 44.6247 51.625 44.6247C51.8571 44.6247 52.0796 44.7169 52.2437 44.881C52.4078 45.0451 52.5 45.2677 52.5 45.4997C52.4979 47.3556 51.7598 49.1349 50.4475 50.4472C49.1352 51.7595 47.3559 52.4976 45.5 52.4997Z" fill="#807979"/>
<path d="M12.25 38.5C12.0179 38.5 11.7954 38.5922 11.6313 38.7563C11.4672 38.9204 11.375 39.1429 11.375 39.375C11.375 39.6071 11.4672 39.8296 11.6313 39.9937C11.7954 40.1578 12.0179 40.25 12.25 40.25H14C14.2321 40.25 14.4546 40.1578 14.6187 39.9937C14.7828 39.8296 14.875 39.6071 14.875 39.375C14.875 39.1429 14.7828 38.9204 14.6187 38.7563C14.4546 38.5922 14.2321 38.5 14 38.5H12.25Z" fill="#807979"/>
<path d="M2.625 38.5C2.39294 38.5 2.17038 38.5922 2.00628 38.7563C1.84219 38.9204 1.75 39.1429 1.75 39.375C1.75 39.6071 1.84219 39.8296 2.00628 39.9937C2.17038 40.1578 2.39294 40.25 2.625 40.25H8.75C8.98206 40.25 9.20462 40.1578 9.36872 39.9937C9.53281 39.8296 9.625 39.6071 9.625 39.375C9.625 39.1429 9.53281 38.9204 9.36872 38.7563C9.20462 38.5922 8.98206 38.5 8.75 38.5H2.625Z" fill="#807979"/>
<path d="M8.75 33.25C8.75 33.4821 8.84219 33.7046 9.00628 33.8687C9.17038 34.0328 9.39294 34.125 9.625 34.125H14.875C15.1071 34.125 15.3296 34.0328 15.4937 33.8687C15.6578 33.7046 15.75 33.4821 15.75 33.25C15.75 33.0179 15.6578 32.7954 15.4937 32.6313C15.3296 32.4672 15.1071 32.375 14.875 32.375H9.625C9.39294 32.375 9.17038 32.4672 9.00628 32.6313C8.84219 32.7954 8.75 33.0179 8.75 33.25Z" fill="#807979"/>
<path d="M2.625 34.125H6.125C6.35706 34.125 6.57962 34.0328 6.74372 33.8687C6.90781 33.7046 7 33.4821 7 33.25C7 33.0179 6.90781 32.7954 6.74372 32.6313C6.57962 32.4672 6.35706 32.375 6.125 32.375H2.625C2.39294 32.375 2.17038 32.4672 2.00628 32.6313C1.84219 32.7954 1.75 33.0179 1.75 33.25C1.75 33.4821 1.84219 33.7046 2.00628 33.8687C2.17038 34.0328 2.39294 34.125 2.625 34.125Z" fill="#807979"/>
<path d="M11.375 28.875C11.6071 28.875 11.8296 28.7828 11.9937 28.6187C12.1578 28.4546 12.25 28.2321 12.25 28C12.25 27.7679 12.1578 27.5454 11.9937 27.3813C11.8296 27.2172 11.6071 27.125 11.375 27.125H10.5C10.2679 27.125 10.0454 27.2172 9.88128 27.3813C9.71719 27.5454 9.625 27.7679 9.625 28C9.625 28.2321 9.71719 28.4546 9.88128 28.6187C10.0454 28.7828 10.2679 28.875 10.5 28.875H11.375Z" fill="#807979"/>
<path d="M7 27.125H2.625C2.39294 27.125 2.17038 27.2172 2.00628 27.3813C1.84219 27.5454 1.75 27.7679 1.75 28C1.75 28.2321 1.84219 28.4546 2.00628 28.6187C2.17038 28.7828 2.39294 28.875 2.625 28.875H7C7.23206 28.875 7.45462 28.7828 7.61872 28.6187C7.78281 28.4546 7.875 28.2321 7.875 28C7.875 27.7679 7.78281 27.5454 7.61872 27.3813C7.45462 27.2172 7.23206 27.125 7 27.125Z" fill="#807979"/>
</svg>
