<svg width="56" height="56" viewBox="0 0 56 56" fill="none" xmlns="http://www.w3.org/2000/svg">
<g clip-path="url(#clip0)">
<path d="M46.914 43.7619L39.6095 41.6923L43.531 37.7708C44.8832 36.4184 44.8832 34.2181 43.531 32.8657L35.9798 25.3144L35.937 20.1134C35.9308 19.3572 36.2147 18.6442 36.7374 18.1004C37.2927 17.5228 38.0743 17.218 38.8756 17.218H47.6033C48.5949 17.218 49.5282 16.8317 50.2323 16.1289C50.9515 15.4082 51.3377 14.4509 51.3196 13.4333C51.2835 11.4207 49.5867 9.78347 47.5372 9.78347H41.2244C40.766 9.78347 40.3945 10.1551 40.3945 10.6134C40.3945 11.0717 40.7661 11.4433 41.2244 11.4433H44.7039V15.5581H38.8883C37.6566 15.5581 36.4587 16.0239 35.5914 16.8984C34.7339 17.7629 34.2671 18.9096 34.2771 20.1271L34.3173 25.0204L28.7649 26.4632V18.5393C32.4976 18.1513 35.4726 15.1761 35.8607 11.4432H37.3512C37.8096 11.4432 38.1812 11.0716 38.1812 10.6133C38.1812 10.155 37.8095 9.78336 37.3512 9.78336H35.8607C35.4441 5.77807 32.0487 2.6447 27.9351 2.6447C26.5204 2.6447 25.1915 3.01701 24.0387 3.66615C23.9724 1.53466 22.1369 -0.158785 19.9543 0.0112926C18.1032 0.155339 16.6111 1.65924 16.4803 3.5115C16.3241 5.72196 18.0783 7.57061 20.2562 7.57061C20.3645 7.57061 20.4712 7.56492 20.5771 7.55595C20.2859 8.25409 20.0908 9.00188 20.0096 9.78314H8.26656C7.27278 9.78314 6.33916 10.1703 5.63829 10.8726C4.91981 11.5911 4.53339 12.547 4.55034 13.5643C4.58414 15.5788 6.2801 17.2178 8.33109 17.2178H17.0919C18.6779 17.2178 19.9636 18.5036 19.9636 20.0895V26.251C19.9636 28.4983 20.8387 30.611 22.4278 32.2L25.5442 35.3165L23.6738 37.1779L14.1141 34.4691C10.8057 33.5326 7.35142 35.4617 6.41375 38.7692C6.25615 39.3247 6.1763 39.8976 6.1763 40.4721C6.1763 43.2462 8.04212 45.7126 10.7139 46.47L13.3567 47.2188C13.7977 47.3437 14.2566 47.0875 14.3815 46.6465C14.5064 46.2055 14.2502 45.7467 13.8092 45.6218L11.1665 44.873C9.20576 44.3172 7.83628 42.5075 7.83628 40.4722C7.83628 40.0509 7.8949 39.6303 8.01084 39.2221C8.69892 36.7948 11.2336 35.3789 13.6619 36.0662L22.3245 38.5208L19.5985 41.2334C19.2758 41.5547 19.272 42.0762 19.5905 42.4019L23.2796 46.1753C23.3261 46.2229 23.3778 46.2643 23.4332 46.2989L25.5604 48.4562C25.7151 48.6131 25.9262 48.7013 26.1465 48.7013H26.1493C26.3694 48.7013 26.5805 48.614 26.7361 48.4583L27.0995 48.095C27.8816 47.3131 28.3476 46.2561 28.3394 45.1503C28.3336 44.3643 28.1049 43.6138 27.6834 42.9707L29.9749 40.6879L30.597 40.8642L30.2261 41.2332C29.9033 41.5546 29.8996 42.0761 30.218 42.4018L33.9072 46.1752C33.9538 46.2228 34.0054 46.2642 34.0609 46.2988L36.1862 48.4541C36.3414 48.6115 36.553 48.7005 36.7742 48.7012H36.777C36.9971 48.7012 37.2083 48.6138 37.3639 48.4581L37.7833 48.0386C39.128 46.694 39.3234 44.6223 38.3683 43.0654L46.4611 45.3584C48.4214 45.914 49.7904 47.7233 49.7904 49.7581C49.7904 50.1801 49.7318 50.6012 49.6159 51.0096C48.9286 53.4372 46.394 54.8524 43.9658 54.1653L17.629 46.7038C17.188 46.5789 16.7292 46.8351 16.6043 47.2761C16.4794 47.7171 16.7355 48.1759 17.1765 48.3008L43.5135 55.7623C44.0795 55.9226 44.6495 55.999 45.2106 55.9989C47.9298 55.9987 50.4365 54.2041 51.2128 51.4622C51.3703 50.9067 51.4502 50.3334 51.4502 49.7583C51.4505 46.985 49.585 44.5191 46.914 43.7619ZM47.5374 11.4433C48.6878 11.4433 49.6401 12.3494 49.6601 13.4629C49.6702 14.0265 49.4562 14.5569 49.0588 14.9551C48.6692 15.3439 48.1526 15.558 47.6037 15.558H46.3641V11.4433H47.5374ZM27.9351 16.9228C24.7376 16.9228 22.0899 14.5313 21.6823 11.4433H26.0447V12.3209C26.0447 12.7792 26.4164 13.1508 26.8747 13.1508C27.3331 13.1508 27.7046 12.7791 27.7046 12.3209V11.4433H30.2349V12.3209C30.2349 12.7792 30.6063 13.1508 31.0648 13.1508C31.5233 13.1508 31.8947 12.7791 31.8947 12.3209V11.4433H34.1877C33.7801 14.5313 31.1325 16.9228 27.9351 16.9228ZM27.9351 4.30468C31.1323 4.30468 33.7798 6.69583 34.1877 9.78347H21.6823C22.0904 6.69594 24.7378 4.30468 27.9351 4.30468ZM20.2561 5.91085C19.0839 5.91085 18.1304 4.95732 18.1304 3.78515C18.1304 2.61299 19.0839 1.65946 20.2561 1.65946C21.4283 1.65946 22.3818 2.61299 22.3818 3.78515C22.3818 4.95732 21.4281 5.91085 20.2561 5.91085ZM9.50599 15.5581H8.33109C7.18025 15.558 6.22869 14.6514 6.20999 13.5369C6.20058 12.9735 6.41441 12.4442 6.81253 12.046C7.20038 11.6574 7.71673 11.4433 8.26656 11.4433H9.50599V15.5581ZM21.9208 28.2416C21.7253 27.6051 21.6236 26.936 21.6236 26.2512V20.0897C21.6236 17.591 19.5908 15.558 17.0919 15.558H11.166V11.4432H20.0093C20.3972 15.176 23.3724 18.1512 27.1051 18.5393V26.8945L21.9208 28.2416ZM26.1451 46.6852L24.4802 44.9967C24.4352 44.9511 24.3855 44.9113 24.3322 44.8775L21.3527 41.8299L23.9093 39.2857L26.4653 41.8417L25.9834 42.3218C25.8272 42.4774 25.7394 42.6886 25.7391 42.9089C25.7389 43.1293 25.8264 43.3407 25.9823 43.4965C26.4321 43.9464 26.6799 44.5446 26.6799 45.1809C26.6798 45.7358 26.4915 46.2614 26.1451 46.6852ZM31.3233 39.345L32.9035 37.7708C34.2557 36.4184 34.2557 34.2181 32.9034 32.8657L31.6472 31.6095C31.6283 31.5907 31.5709 31.5332 31.6122 31.4333C31.6535 31.3334 31.7348 31.3334 31.7616 31.3334C31.9654 31.3334 32.347 31.4916 32.4911 31.6355L36.1722 35.3165L31.9466 39.5215L31.3233 39.345ZM36.7726 46.685L35.1077 44.9966C35.0628 44.951 35.0131 44.9111 34.9596 44.8774L31.9801 41.8298L34.5686 39.2538L37.1344 41.8196L36.6202 42.3339C36.2972 42.6569 36.296 43.1803 36.6175 43.505C37.48 44.3754 37.5309 45.7545 36.7726 46.685ZM38.3083 40.646L35.7453 38.083L37.9326 35.9065C38.0889 35.751 38.1768 35.5396 38.1771 35.3193C38.1773 35.0989 38.0899 34.8872 37.9341 34.7314L33.6648 30.462C33.2079 30.0053 32.4076 29.6737 31.7616 29.6737C31.0222 29.6737 30.3616 30.1151 30.0787 30.7983C29.7957 31.4814 29.9507 32.2606 30.4736 32.7834L31.7297 34.0395C32.4348 34.7446 32.4348 35.8919 31.7309 36.596L27.6411 40.6703L25.0857 38.115L27.305 35.9066C27.4613 35.751 27.5492 35.5398 27.5494 35.3194C27.5496 35.099 27.4622 34.8874 27.3064 34.7316L23.6015 31.0267C23.2198 30.645 22.8906 30.2251 22.6151 29.7765L34.9015 26.5837L42.3573 34.0396C43.0624 34.7447 43.0624 35.8921 42.3573 36.5972L38.3083 40.646Z" fill="#807979"/>
</g>
<defs>
<clipPath id="clip0">
<rect width="56" height="56" fill="white"/>
</clipPath>
</defs>
</svg>
