<svg width="49" height="49" viewBox="0 0 49 49" fill="none" xmlns="http://www.w3.org/2000/svg">
<g clip-path="url(#clip0)">
<path d="M46.4708 28.0997C47.7276 25.94 48.5647 23.5078 48.8697 20.9149C48.8708 20.9066 48.8716 20.8984 48.8727 20.8902C48.9557 20.1762 48.9998 19.4502 48.9998 18.7141C48.9998 13.8534 47.1366 9.42003 44.0875 6.08949C44.0389 6.02145 43.9818 5.95939 43.9167 5.90593C41.9361 3.79934 39.4747 2.14958 36.7087 1.13573C36.659 1.1133 36.6074 1.0946 36.5547 1.08115C34.5939 0.382065 32.4839 0 30.2857 0C27.8341 0 25.4912 0.474777 23.3435 1.33573C23.2852 1.3533 23.2291 1.37648 23.1749 1.40489C20.5341 2.49352 18.1954 4.16982 16.3217 6.26968C16.2604 6.32388 16.2058 6.38482 16.1598 6.45211C13.3033 9.73891 11.5717 14.028 11.5717 18.7141C11.5717 19.4165 11.612 20.11 11.6879 20.7926C11.6887 20.8012 11.6898 20.8094 11.6909 20.8177C11.83 22.0566 12.0905 23.2589 12.4603 24.4129L2.40733 34.4658C2.03349 34.8397 2.03349 35.4457 2.40733 35.8195C2.59425 36.0064 2.83912 36.0999 3.08398 36.0999C3.32885 36.0999 3.57372 36.0064 3.76064 35.8195L13.2106 26.3699C13.4738 26.9543 13.7661 27.5232 14.0857 28.0739C14.1149 28.1397 14.1519 28.2014 14.1949 28.2586C16.5673 32.2426 20.376 35.2752 24.9017 36.6375L18.1598 43.3789C17.7864 43.7528 17.7864 44.3588 18.1598 44.7326C18.3468 44.9195 18.592 45.013 18.8369 45.013C19.0817 45.013 19.3266 44.9195 19.5135 44.7326L27.0916 37.1541C28.1302 37.3336 29.1971 37.4281 30.2857 37.4281C37.1027 37.4281 43.0793 33.7634 46.3512 28.3012C46.399 28.2392 46.4394 28.1719 46.4708 28.0997ZM38.1902 28.1375L34.7853 22.8977L36.5958 17.3256L40.8991 16.3593L42.0187 16.108L46.9112 21.1321C46.614 23.1852 45.944 25.1195 44.9721 26.8638L38.1902 28.1375ZM25.7866 22.8977L22.3831 28.1348L15.5803 26.8294C14.6057 25.0705 13.9381 23.119 13.6487 21.048L18.5475 16.1065L23.9761 17.3256L25.1824 21.039L25.7866 22.8977ZM16.3557 9.33255L17.2189 14.7282L13.4887 18.4909C13.5332 15.1043 14.5833 11.9558 16.3557 9.33255ZM27.5331 22.0794L25.8426 16.8766L30.2682 13.6616L34.6937 16.877L33.0032 22.0794H27.5331ZM47.0839 18.566L43.3343 14.7155L43.9971 9.01665C45.9149 11.7206 47.0528 15.0134 47.0839 18.566ZM42.3062 6.99007L41.4591 14.2721L39.4 14.7342L36.0664 15.4826L31.2603 11.9909V6.80988L36.4545 3.08717C38.6755 3.96719 40.6647 5.30779 42.3062 6.99007ZM34.1714 2.36865L30.2454 5.18255L25.8684 2.50473C27.2767 2.12042 28.7575 1.91406 30.2857 1.91406C31.623 1.91406 32.9239 2.07182 34.1714 2.36865ZM23.5458 3.32718L29.3111 6.85474V11.9909L25.9211 14.4538L24.5054 15.4826L19.0832 14.2654L17.9692 7.30185C19.5262 5.62256 21.4212 4.26141 23.5458 3.32718ZM17.0604 29.0623L22.2242 30.0538L24.8542 34.6124C21.7472 33.5481 19.0481 31.597 17.0604 29.0623ZM27.4449 35.2726L23.9566 29.2261L27.3571 23.9934H33.2144L36.6148 29.2261L33.1273 35.2722C32.2032 35.4303 31.254 35.5137 30.2857 35.5137C29.3175 35.5141 28.3687 35.4307 27.4449 35.2726ZM35.7176 34.6124L38.3461 30.0556L43.4902 29.0893C41.5047 31.6108 38.8138 33.5518 35.7176 34.6124Z" fill="#807979"/>
<path d="M13.1805 34.4661L0.28038 47.3666C-0.0934601 47.7405 -0.0934601 48.3465 0.28038 48.7203C0.4673 48.9068 0.712166 49.0003 0.957031 49.0003C1.2019 49.0003 1.44676 48.9068 1.63368 48.7199L14.5342 35.8198C14.9076 35.446 14.9076 34.84 14.5342 34.4661C14.1603 34.0927 13.5543 34.0927 13.1805 34.4661Z" fill="#807979"/>
<path d="M15.9009 46.0347C15.6493 46.0347 15.4025 46.1371 15.2246 46.315C15.0467 46.493 14.9438 46.7397 14.9438 46.9924C14.9438 47.244 15.0463 47.49 15.2246 47.6684C15.4025 47.8474 15.6493 47.9495 15.9009 47.9495C16.1528 47.9495 16.3996 47.8474 16.5775 47.6684C16.7555 47.4904 16.8579 47.244 16.8579 46.9924C16.8579 46.7397 16.7559 46.493 16.5775 46.315C16.3996 46.1371 16.1528 46.0347 15.9009 46.0347Z" fill="#807979"/>
</g>
<defs>
<clipPath id="clip0">
<rect width="49" height="49" fill="white"/>
</clipPath>
</defs>
</svg>
