<svg width="53" height="53" viewBox="0 0 53 53" fill="none" xmlns="http://www.w3.org/2000/svg">
<g clip-path="url(#clip0)">
<path d="M48.9228 4.07782C45.8802 1.03518 41.5892 -0.381326 36.8407 0.0892566C32.151 0.554043 27.5677 2.81038 23.9353 6.44275C23.6178 6.76023 23.3095 7.08765 23.0111 7.42201C22.6671 6.65806 22.1832 5.94235 21.5566 5.31567C18.7781 2.5372 14.2572 2.5373 11.4788 5.31567C8.68627 8.10832 8.70045 12.6609 11.5214 15.4356C12.7318 16.6263 14.3404 17.3516 16.0346 17.4646C16.6674 17.5068 17.2906 17.4654 17.8929 17.3483C17.4027 19.6809 17.3703 21.9707 17.7722 24.1008L17.7582 24.1007C17.736 26.2302 17.2771 32.1583 15.4437 33.9917L11.7239 37.7115C11.5598 37.6652 11.3886 37.6398 11.2133 37.6398C10.7128 37.6398 10.2421 37.8347 9.8882 38.1888L4.10125 43.9756C3.79204 44.2848 3.79204 44.7861 4.10125 45.0953C4.41045 45.4045 4.91178 45.4045 5.22098 45.0953L11.0078 39.3085C11.0818 39.2345 11.1683 39.2234 11.2132 39.2234C11.2581 39.2234 11.3441 39.2345 11.4181 39.308L13.6932 41.5832C13.8056 41.6964 13.8054 41.88 13.6926 41.993L4.35331 51.3323C4.23996 51.4456 4.05601 51.4456 3.94266 51.3323L1.66862 49.0583C1.55527 48.945 1.55527 48.7611 1.66862 48.6477L2.62325 47.6931C2.93245 47.3839 2.93245 46.8825 2.62325 46.5733C2.31404 46.2641 1.81272 46.2641 1.50352 46.5733L0.548893 47.528C-0.182964 48.2598 -0.182964 49.4464 0.548893 50.1783L2.82293 52.4522C3.18824 52.8175 3.66814 53.0002 4.14804 53.0002C4.62793 53.0002 5.10783 52.8176 5.47314 52.4522L14.8124 43.1129C15.3087 42.6167 15.4669 41.9093 15.2891 41.2775L19.0095 37.5571C20.8404 35.7262 26.7703 35.2656 28.9007 35.2426L28.9006 35.2312C29.4341 35.3311 29.9792 35.4043 30.5351 35.45C30.9962 35.4878 31.4597 35.5068 31.9258 35.5068C34.6483 35.5068 37.4386 34.8629 40.1053 33.6161C40.5144 33.4248 40.6866 32.9353 40.48 32.5337V32.5336C40.2865 32.1571 39.8294 31.9967 39.446 32.1762C36.5692 33.5235 33.5481 34.109 30.6648 33.8717C27.5195 33.6132 24.7621 32.3816 22.6904 30.3103C19.3962 27.0161 18.2765 21.9691 19.6616 16.7515C20.3545 16.4103 20.9946 15.9553 21.5567 15.3932C23.2318 13.7182 23.8952 11.4101 23.5506 9.23198C24.0202 8.65509 24.5236 8.09383 25.0552 7.56227C28.4294 4.18807 32.6705 2.09363 36.997 1.66487C41.2649 1.24191 45.1023 2.49652 47.8032 5.19724C53.4223 10.8174 52.3614 21.022 45.4382 27.9452C44.5885 28.795 43.6735 29.5718 42.7111 30.2609C42.3662 30.5079 42.2817 30.9854 42.5161 31.3389C42.765 31.7144 43.2752 31.8051 43.6413 31.5425C44.6712 30.8045 45.6496 29.9734 46.5581 29.0649C50.1905 25.4324 52.4469 20.8494 52.9116 16.1599C53.3819 11.4119 51.9654 7.12088 48.9228 4.07782ZM12.5986 14.2736C11.6891 13.3639 11.1637 12.2141 11.0199 11.0263C12.2436 11.1737 13.3742 11.7203 14.2627 12.6088C15.1524 13.4985 15.6993 14.6297 15.8462 15.8552C14.6201 15.7081 13.4854 15.1603 12.5986 14.2736ZM23.522 33.0445C24.0089 33.3754 24.5173 33.675 25.0457 33.9412C24.8607 33.9644 24.6729 33.9893 24.4825 34.0165C23.6157 34.1402 22.8224 34.2895 22.1024 34.4639L23.522 33.0445ZM21.5705 31.4302C21.7925 31.6522 22.0213 31.8654 22.2566 32.0702L14.3382 39.9886L13.0123 38.6626L20.9316 30.7433C21.1361 30.9787 21.3485 31.2082 21.5705 31.4302ZM19.958 29.4772L18.5369 30.8983C18.7112 30.1783 18.8606 29.3851 18.9843 28.5182C19.012 28.3243 19.0373 28.1331 19.0608 27.945C19.3273 28.4752 19.6259 28.9871 19.958 29.4772ZM20.4368 14.2736C19.6094 15.101 18.566 15.6331 17.4343 15.8205C17.2748 14.1847 16.5644 12.671 15.3825 11.4889C14.2016 10.3081 12.6901 9.59801 11.055 9.43808C11.238 8.33792 11.7515 7.28226 12.5986 6.43529C13.4458 5.58812 14.5015 5.07458 15.602 4.89167C15.7609 6.52556 16.4704 8.03782 17.652 9.21935C18.834 10.4015 20.346 11.1134 21.98 11.2723C21.7968 12.3721 21.2834 13.4271 20.4368 14.2736ZM18.7718 8.09983C17.8825 7.21052 17.3363 6.08055 17.19 4.85688C18.3776 5.00077 19.5274 5.52591 20.4369 6.4355C21.3464 7.34478 21.8715 8.49453 22.0154 9.68217C20.7909 9.5358 19.6615 8.98965 18.7718 8.09983Z" fill="#807979"/>
<path d="M46.2051 6.79546C43.9918 4.58218 40.8008 3.55862 37.2195 3.91337C33.4114 4.29058 29.6588 6.15376 26.6528 9.15986C23.6467 12.1659 21.7835 15.9185 21.4063 19.7266C21.0515 23.3078 22.0751 26.499 24.2884 28.7122C26.2143 30.6382 28.8804 31.6632 31.9 31.6632C32.3505 31.6632 32.8091 31.6404 33.2741 31.5942C37.0821 31.217 40.8348 29.3537 43.8408 26.3477C46.8469 23.3416 48.71 19.5891 49.0872 15.781C49.4418 12.1999 48.4183 9.00862 46.2051 6.79546ZM45.6167 8.50357C46.3297 9.3758 46.8554 10.3972 47.1809 11.5284L44.8863 9.23387L45.6167 8.50357ZM27.8464 17.7538L30.9867 14.6136L34.1268 17.7537L30.9866 20.894L27.8464 17.7538ZM29.8668 22.0138L26.7264 25.1543L23.5862 22.0141L26.7267 18.8737L29.8668 22.0138ZM32.1067 13.4936L35.2463 10.354L38.3864 13.4942L35.2469 16.6337L32.1067 13.4936ZM35.2467 18.8736L38.3865 22.0134L35.2463 25.1537L32.1064 22.0138L35.2467 18.8736ZM36.3667 17.7535L39.5062 14.614L42.6461 17.7538L39.5065 20.8934L36.3667 17.7535ZM40.626 13.4942L43.7664 10.3537L46.9063 13.4936L43.7658 16.634L40.626 13.4942ZM44.4961 7.38446L43.7663 8.11425L41.4745 5.8223C42.6045 6.14786 43.6248 6.67227 44.4961 7.38446ZM39.5065 6.09383L42.6467 9.23398L39.5062 12.3744L36.366 9.23429L39.5065 6.09383ZM37.3755 5.48929C37.5559 5.47149 37.7348 5.45824 37.9125 5.4482L35.2461 8.11456L33.5581 6.42653C34.8039 5.93483 36.0873 5.61693 37.3755 5.48929ZM32.0226 7.13043L34.1264 9.23429L30.9869 12.3738L28.3449 9.73179C29.4844 8.68545 30.7236 7.81146 32.0226 7.13043ZM27.2247 10.8519L29.8668 13.4939L26.7266 16.6341L24.6228 14.5305C25.3039 13.2313 26.1782 11.9917 27.2247 10.8519ZM22.982 19.8827C23.1096 18.5947 23.4275 17.3115 23.919 16.066L25.6069 17.7538L22.9406 20.4201C22.9506 20.2423 22.9641 20.0632 22.982 19.8827ZM24.8766 27.004C24.1638 26.1321 23.6384 25.1111 23.3127 23.9803L25.6065 26.2741L24.8766 27.004ZM25.9964 28.1239L26.7264 27.3939L29.0202 29.6877C27.8893 29.3621 26.8684 28.8366 25.9964 28.1239ZM30.986 29.414L27.8461 26.2741L30.9866 23.1337L34.1264 26.2735L30.986 29.414ZM33.1178 30.0184C32.9371 30.0363 32.7577 30.0499 32.5797 30.0598L35.2463 27.3932L36.9344 29.0814C35.6889 29.573 34.4058 29.8908 33.1178 30.0184ZM38.47 28.3775L36.3661 26.2735L39.5062 23.1333L42.1487 25.7756C41.0089 26.8221 39.7693 27.6964 38.47 28.3775ZM43.2686 24.6557L40.6263 22.0133L43.7658 18.8738L45.87 20.978C45.1889 22.2768 44.3149 23.5162 43.2686 24.6557ZM47.5112 15.6249C47.3836 16.9132 47.0656 18.1966 46.574 19.4423L44.8856 17.754L47.5526 15.087C47.5426 15.265 47.529 15.4443 47.5112 15.6249Z" fill="#807979"/>
</g>
<defs>
<clipPath id="clip0">
<rect width="53" height="53" fill="white"/>
</clipPath>
</defs>
</svg>
